<svg xmlns="http://www.w3.org/2000/svg" viewBox="-220 -220 440 440" width="100%" height="100%">
  <!-- Outer Ring Segments -->
  <path d="M 165.81 -111.84 A 200.00 200.00 0 1 0 -87.67 179.76" fill="none" stroke="#2FE48D" stroke-width="12.5" stroke-linecap="round" />
  <path d="M -55.13 192.25 A 200.00 200.00 0 0 0 105.98 169.61" fill="none" stroke="#2FE48D" stroke-width="12.5" stroke-linecap="round" />
  <path d="M 185.44 -74.92 A 200.00 200.00 0 0 1 165.81 111.84" fill="none" stroke="#2FE48D" stroke-width="12.5" stroke-linecap="round" />

  <!-- Middle Ring Arc with Trail Fade -->
  <path d="M 127.16 27.03 A 130.00 130.00 0 0 0 -83.56 -99.59" fill="none" stroke="#2FE48D" stroke-width="12.5" stroke-linecap="round" />
  <path d="M -83.56 -99.59 A 130.00 130.00 0 0 0 -129.51 -11.33" fill="none" stroke="#2FE48D" stroke-width="12.5" stroke-linecap="round" opacity="0.70" />
  <path d="M -129.51 -11.33 A 130.00 130.00 0 0 0 -112.58 65.00" fill="none" stroke="#2FE48D" stroke-width="12.5" stroke-linecap="round" opacity="0.38" />
  <path d="M -112.58 65.00 A 130.00 130.00 0 0 0 -76.41 105.17" fill="none" stroke="#2FE48D" stroke-width="12.5" stroke-linecap="round" opacity="0.14" />

  <!-- Inner Ring Arc with Trail Fade -->
  <path d="M 60.14 -21.89 A 64.00 64.00 0 0 0 -27.05 -58.00" fill="none" stroke="#2FE48D" stroke-width="12.5" stroke-linecap="round" />
  <path d="M -27.05 -58.00 A 64.00 64.00 0 0 0 -60.14 -21.89" fill="none" stroke="#2FE48D" stroke-width="12.5" stroke-linecap="round" opacity="0.65" />
  <path d="M -60.14 -21.89 A 64.00 64.00 0 0 0 -63.03 11.11" fill="none" stroke="#2FE48D" stroke-width="12.5" stroke-linecap="round" opacity="0.30" />
  <path d="M -63.03 11.11 A 64.00 64.00 0 0 0 -53.06 35.79" fill="none" stroke="#2FE48D" stroke-width="12.5" stroke-linecap="round" opacity="0.12" />

  <!-- Radar Scanner Sweep Arm -->
  <line x1="0" y1="0" x2="141.42" y2="141.42" stroke="#2FE48D" stroke-width="10.5" stroke-linecap="round" />

  <!-- Center Pivot Dot -->
  <circle cx="0" cy="0" r="15.0" fill="#2FE48D" />

  <!-- Outer Target Blip -->
  <circle cx="141.42" cy="141.42" r="25.0" fill="#2FE48D" />
</svg>
